<svg width="96" height="96" viewBox="0 0 96 96" fill="none" xmlns="http://www.w3.org/2000/svg">
  <rect width="96" height="96" rx="48" fill="#25D366"/>
  <path d="M48 21C33.1 21 21 32.7 21 47.2C21 52.3 22.5 57.1 25.4 61.2L21 75L35.3 70.8C39.1 72.8 43.4 74 48 74C62.9 74 75 62.3 75 47.8C75 33.3 62.9 21 48 21ZM61 57.5C60.5 58.8 57.9 60 56.4 60.2C55.2 60.4 53.7 60.5 47.1 57.7C38.8 54.2 33.6 45.6 33.2 45.1C32.8 44.5 29.8 40.7 29.8 36.7C29.8 32.7 31.9 30.8 32.7 29.9C33.5 29 34.5 28.8 35.1 28.8C35.8 28.8 36.4 28.8 37 28.9C37.5 28.9 38.1 28.7 38.6 29.9C39.2 31.1 40.6 35.1 40.7 35.4C40.9 35.7 40.9 36.1 40.7 36.4C40.5 36.7 40.4 37 40.1 37.4C39.7 37.8 39.3 38.3 39 38.6C38.6 39 38.2 39.5 38.7 40.3C39.2 41 41.1 44.1 44 46.7C47.8 50 50.8 51 51.7 51.3C52.4 51.6 53.3 51.5 53.8 50.9C54.5 50.2 55.3 49 56.2 47.9C56.8 47.1 57.8 47 58.5 47.3C59.2 47.5 63.1 49.4 63.8 49.8C64.5 50.1 65 50.4 65.2 50.7C65.4 51 65.4 53.7 61 57.5Z" fill="white"/>
</svg>
